<svg width="25" height="25" viewBox="0 0 25 25" fill="none"
     xmlns="http://www.w3.org/2000/svg">
    <path
            d="M3.57143 0C1.60156 0 0 1.60156 0 3.57143V21.4286C0 23.3984 1.60156 25 3.57143 25H21.4286C23.3984 25 25 23.3984 25 21.4286V3.57143C25 1.60156 23.3984 0 21.4286 0H3.57143ZM7.97991 7.97991C8.50446 7.45536 9.35268 7.45536 9.87165 7.97991L12.4944 10.6027L15.1172 7.97991C15.6417 7.45536 16.49 7.45536 17.0089 7.97991C17.5279 8.50446 17.5335 9.35268 17.0089 9.87165L14.3862 12.4944L17.0089 15.1172C17.5335 15.6417 17.5335 16.49 17.0089 17.0089C16.4844 17.5279 15.6362 17.5335 15.1172 17.0089L12.4944 14.3862L9.87165 17.0089C9.3471 17.5335 8.49888 17.5335 7.97991 17.0089C7.46094 16.4844 7.45536 15.6362 7.97991 15.1172L10.6027 12.4944L7.97991 9.87165C7.45536 9.3471 7.45536 8.49888 7.97991 7.97991Z"
            fill="black"/>
</svg>